<mxfile host="app.diagrams.net" modified="2024-05-04T22:37:15.701Z" agent="Mozilla/5.0 (Windows NT 10.0; Win64; x64) AppleWebKit/537.36 (KHTML, like Gecko) Chrome/124.0.0.0 Safari/537.36" version="24.3.1" etag="n3x6p6VH_CMdzD5-mNa-" type="github">
  <diagram name="Page-1" id="pNbLXSQ5J_fwQyrR9Paj">
    <mxGraphModel>
      <root>
        <mxCell id="0" />
        <mxCell id="1" parent="0" />
      </root>
    </mxGraphModel>
  </diagram>
</mxfile>
